<?xml version="1.0" standalone="no"?>
<!DOCTYPE svg PUBLIC "-//W3C//DTD SVG 20010904//EN"
 "http://www.w3.org/TR/2001/REC-SVG-20010904/DTD/svg10.dtd">
<svg version="1.0" xmlns="http://www.w3.org/2000/svg"
 width="1024.000000pt" height="1024.000000pt" viewBox="0 0 1024.000000 1024.000000"
 preserveAspectRatio="xMidYMid meet">

<g transform="translate(0.000000,1024.000000) scale(0.100000,-0.100000)"
fill="#fff" stroke="none">
<path d="M3668 8245 c-48 -8 -122 -26 -165 -41 -361 -124 -531 -313 -613 -684
-17 -77 -155 -885 -190 -1110 -8 -51 -29 -172 -116 -680 -19 -113 -39 -227
-44 -255 -5 -27 -18 -104 -30 -170 -12 -66 -30 -172 -41 -235 -83 -474 -102
-581 -129 -729 -17 -86 -52 -286 -79 -446 -27 -159 -75 -434 -106 -610 -64
-364 -78 -487 -65 -557 34 -175 183 -262 497 -289 209 -18 392 10 533 81 199
101 326 277 359 500 6 36 17 110 26 165 16 99 20 124 50 305 9 52 20 120 25
150 4 30 16 98 24 150 9 52 21 120 26 150 5 30 16 93 24 140 8 47 22 128 31
180 9 52 20 122 25 155 22 142 39 244 50 300 6 33 17 96 25 140 7 44 21 123
30 175 10 52 21 118 25 145 13 79 37 218 65 370 32 173 54 294 64 360 16 97
34 160 50 172 65 50 135 -46 252 -347 16 -41 34 -84 39 -95 5 -11 35 -85 65
-165 30 -80 60 -154 65 -165 5 -11 23 -56 41 -100 17 -44 37 -93 44 -110 6
-16 18 -46 25 -65 7 -19 19 -51 27 -70 26 -63 46 -115 73 -185 4 -11 13 -33
20 -50 6 -16 90 -232 185 -480 376 -976 422 -1090 491 -1228 82 -164 176 -282
298 -374 151 -113 437 -196 721 -209 290 -14 515 52 669 196 140 130 244 381
300 725 9 55 21 123 27 150 5 28 14 77 19 110 5 33 16 99 24 147 9 48 20 116
25 150 5 35 17 104 26 153 9 50 21 115 25 145 9 55 16 94 65 370 36 201 74
419 90 520 8 47 23 137 34 200 11 63 25 142 30 175 19 111 41 240 51 290 6 28
15 82 20 120 5 39 17 106 25 150 8 44 20 107 25 140 5 33 16 103 25 155 9 52
20 120 24 150 5 30 12 66 15 80 4 14 11 54 15 90 8 57 61 350 90 495 6 28 17
93 26 145 9 52 22 131 31 175 70 378 73 413 48 507 -26 101 -89 179 -174 217
-101 44 -183 56 -400 55 -220 0 -299 -10 -438 -57 -180 -62 -293 -190 -336
-382 -20 -88 -186 -1052 -241 -1400 -9 -55 -20 -125 -25 -155 -19 -106 -60
-356 -69 -420 -5 -36 -17 -105 -26 -155 -9 -49 -20 -110 -24 -135 -5 -25 -29
-164 -55 -310 -26 -146 -56 -312 -66 -369 -23 -134 -41 -148 -93 -75 -31 45
-61 105 -107 219 -18 44 -39 96 -47 115 -8 19 -18 44 -23 55 -4 11 -38 97 -75
190 -37 94 -73 184 -80 200 -7 17 -31 77 -54 135 -23 58 -46 114 -51 125 -5
11 -23 56 -40 100 -17 44 -35 89 -40 100 -5 11 -79 198 -165 415 -87 217 -163
409 -170 425 -7 17 -53 129 -101 250 -208 525 -290 681 -443 838 -165 170
-340 251 -632 291 -135 19 -331 19 -451 1z"/>
</g>
</svg>
